Coordinates
version=1
nRows=16
nColumns=40
inDegrees=yes

Units are S.I. units (second, meters, Newtons, ...)
Angles are in degrees.

endheader
time	pelvis_tilt	pelvis_list	pelvis_rotation	pelvis_tx	pelvis_ty	pelvis_tz	hip_flexion_r	hip_adduction_r	hip_rotation_r	knee_angle_r	knee_angle_r_beta	ankle_angle_r	subtalar_angle_r	mtp_angle_r	hip_flexion_l	hip_adduction_l	hip_rotation_l	knee_angle_l	knee_angle_l_beta	ankle_angle_l	subtalar_angle_l	mtp_angle_l	lumbar_extension	lumbar_bending	lumbar_rotation	arm_flex_r	arm_add_r	arm_rot_r	elbow_flex_r	pro_sup_r	wrist_flex_r	wrist_dev_r	arm_flex_l	arm_add_l	arm_rot_l	elbow_flex_l	pro_sup_l	wrist_flex_l	wrist_dev_l
     12.71000000	     -8.43364872	     -5.52112863	      2.26984259	      1.05142948	      0.92426566	      0.38878749	     22.85685926	     -1.54128671	     -6.15887528	     51.71029558	     51.71029558	     10.58284259	    -12.83856440	     -0.51905161	     25.85418305	     -6.32820068	     -6.28356089	     25.03725956	     25.03725956	     12.67726789	     -2.47145495	      0.86484256	    -11.99289796	      4.27353284	      1.71096165	     27.84068221	    -10.49572033	      6.07346615	     60.24057701	     44.84845359	      0.00000000	      0.00000000	     14.47546898	    -14.67590627	     16.70457796	     30.48187792	     44.58619707	      0.00000000	      0.00000000
     12.73142857	     -8.13282402	     -5.28034916	      2.20498161	      1.05072970	      0.92137574	      0.38646858	     24.25692459	     -1.63813255	     -6.04539633	     55.42943738	     55.42943738	     10.14173506	    -14.00556509	     -0.70363184	     26.29423564	     -5.67310584	     -4.84967623	     26.92322012	     26.92322012	     13.17202269	     -5.23726197	      0.82298985	    -12.16765358	      4.10908865	      2.17024468	     23.88015209	    -11.44905277	      6.50752436	     56.84392657	     44.93937558	      0.00000000	      0.00000000	     16.65861507	    -14.12801643	     16.49461605	     31.81069863	     44.66499817	      0.00000000	      0.00000000
     12.75285714	     -7.73707611	     -4.99532223	      2.09999954	      1.05012718	      0.91833348	      0.38411653	     25.41779920	     -1.76413040	     -5.94207568	     58.74211195	     58.74211195	      9.74318419	    -15.18702518	     -0.50535147	     26.58586266	     -4.83218899	     -3.15232653	     28.76676337	     28.76676337	     13.55873939	     -8.63913804	      1.08360395	    -12.47713060	      3.88672773	      2.80439059	     20.08843347	    -12.32766691	      6.89995229	     52.45860882	     45.06921415	      0.00000000	      0.00000000	     18.93287397	    -13.45144650	     16.24112754	     33.32110459	     44.75324797	      0.00000000	      0.00000000
     12.77428571	     -7.26334337	     -4.60768627	      1.92618919	      1.04963991	      0.91518571	      0.38188197	     26.38715005	     -2.01240748	     -5.79847003	     61.63585270	     61.63585270	      9.92525033	    -15.95710202	      1.24565365	     26.71542307	     -3.79732924	     -1.39252537	     30.54633459	     30.54633459	     14.04014443	    -12.27910094	      2.05650262	    -12.77388698	      3.58741248	      2.56315567	     18.09369172	    -11.93250108	      7.00629610	     44.52980351	     45.36552491	      0.00000000	      0.00000000	     20.71972756	    -13.21600688	     15.70013996	     34.81183559	     44.90652078	      0.00000000	      0.00000000
     12.79571429	     -6.84233073	     -4.42881006	      1.65406154	      1.04922311	      0.91158005	      0.38016240	     27.23894128	     -2.03668748	     -5.72312230	     63.80403893	     63.80403893	      9.78618804	    -17.16625606	      1.95419474	     27.04927966	     -3.27080895	     -0.46607344	     32.62917472	     32.62917472	     14.66972533	    -14.49091567	      2.20412144	    -13.10390601	      3.51262034	      3.43978566	     14.47552891	    -12.84144245	      7.27014064	     40.73744071	     45.47836071	      0.00000000	      0.00000000	     22.69873331	    -12.39773835	     15.25618706	     36.83149005	     45.01137166	      0.00000000	      0.00000000
     12.81714286	     -6.37448537	     -4.15742739	      1.27801261	      1.04882024	      0.90825464	      0.37883547	     28.02103853	     -2.17239314	     -5.51840413	     65.53394434	     65.53394434	     11.10367529	    -17.65742791	      6.42117801	     27.27197064	     -2.64648472	      0.36735725	     34.71133862	     34.71133862	     16.29448584	    -16.22654232	      5.06949792	    -13.42801406	      3.32971464	      2.97169688	     13.48598819	    -12.18684303	      6.83760194	     32.42386453	     45.84178412	      0.00000000	      0.00000000	     23.55479855	    -12.47536857	     13.82985790	     40.00993483	     45.26940548	      0.00000000	      0.00000000
     12.83857143	     -6.02681064	     -4.01064563	      0.79852544	      1.04838485	      0.90477704	      0.37800214	     28.69894448	     -2.36022071	     -5.47699391	     66.31237863	     66.31237863	     11.38621209	    -18.43277567	      6.82917050	     27.51853888	     -2.37009285	      0.66496407	     36.53385627	     36.53385627	     17.01328536	    -17.50730767	      5.08361902	    -13.67894368	      3.28463165	      3.56088106	     10.31262952	    -12.92317084	      6.92373205	     30.28233418	     45.90114802	      0.00000000	      0.00000000	     25.26293402	    -11.88195851	     13.38863371	     41.88052623	     45.35905668	      0.00000000	      0.00000000
     12.86000000	     -5.70050569	     -3.86531331	      0.22401702	      1.04790487	      0.90205346	      0.37774742	     29.39192192	     -2.48318899	     -5.20784769	     66.57113376	     66.57113376	     13.12244138	    -18.75686555	     11.32250810	     27.67050800	     -2.15101443	      0.86310203	     38.23775890	     38.23775890	     19.14221585	    -17.92293272	      8.76635812	    -13.96321406	      3.21463168	      3.61093901	      8.20208344	    -13.19017700	      6.11437309	     26.49464037	     46.12442133	      0.00000000	      0.00000000	     25.58370640	    -11.87825971	     11.82974029	     46.40800304	     45.60991690	      0.00000000	      0.00000000
     12.88142857	     -5.52363239	     -3.81582038	     -0.40969575	      1.04725713	      0.89975098	      0.37803376	     30.02437737	     -2.70517345	     -5.10105138	     65.91428701	     65.91428701	     13.86692285	    -19.06030301	     11.88417156	     27.73458062	     -2.21284942	      0.69965378	     39.37359334	     39.37359334	     19.87779855	    -18.36688151	      8.99955382	    -14.04616499	      3.22987390	      4.13768708	      5.43495025	    -13.90957330	      6.01971704	     24.87161365	     46.18233194	      0.00000000	      0.00000000	     26.84483924	    -11.39493264	     11.35276332	     48.56005114	     45.70034215	      0.00000000	      0.00000000
     12.90285714	     -5.47045102	     -3.84440688	     -1.05518358	      1.04627440	      0.89824555	      0.37894572	     30.75862051	     -2.78574837	     -4.83915753	     64.71506786	     64.71506786	     15.19435012	    -19.17519183	     14.08651866	     27.81025796	     -2.39263885	      0.56913333	     40.27253508	     40.27253508	     21.06192497	    -18.55719580	     10.79706614	    -14.11830515	      3.27941238	      3.85101505	      3.22417172	    -14.40836165	      5.17082491	     24.16718620	     46.28177928	      0.00000000	      0.00000000	     26.91077997	    -11.81507946	     10.31259206	     53.08796611	     45.87633890	      0.00000000	      0.00000000
     12.92428571	     -5.55050279	     -3.94004251	     -1.75122933	      1.04505945	      0.89766603	      0.38047148	     31.44648652	     -2.77168333	     -4.45917303	     62.77809022	     62.77809022	     15.89191869	    -19.22981023	     14.37287109	     27.73477125	     -2.78467995	      0.22184308	     40.57905481	     40.57905481	     21.51894109	    -18.65009555	     11.05350232	    -14.04155810	      3.36728674	      4.12931216	      0.96654525	    -15.03944349	      4.86357234	     23.43786144	     46.32446262	      0.00000000	      0.00000000	     27.80356947	    -11.62478090	      9.80972058	     55.67363328	     45.97293828	      0.00000000	      0.00000000
     12.94571429	     -5.78071842	     -4.20026279	     -2.40007775	      1.04349431	      0.89794579	      0.38263838	     32.11150993	     -2.53169435	     -4.02351608	     60.21882254	     60.21882254	     16.25473595	    -19.19024438	     14.10942214	     27.64994053	     -3.38976817	     -0.07126010	     40.51810653	     40.51810653	     21.81376415	    -18.66737315	     11.34750852	    -13.91780962	      3.62923335	      3.78749413	     -1.06857062	    -15.61767703	      3.92023386	     24.25160315	     46.35491337	      0.00000000	      0.00000000	     27.81001345	    -12.20464248	      9.06688240	     59.94894092	     46.11820288	      0.00000000	      0.00000000
     12.96714286	     -6.22454469	     -4.41751786	     -2.98713762	      1.04153914	      0.89896753	      0.38537080	     32.87559278	     -2.23377801	     -3.34142116	     57.24440838	     57.24440838	     16.50718950	    -18.97314310	     14.17143949	     27.60482251	     -4.00517004	     -0.41236929	     40.02488247	     40.02488247	     21.77252603	    -18.63360189	     11.46043130	    -13.47630734	      3.81119809	      3.41016817	     -2.33965022	    -16.01089024	      3.83289679	     23.88585389	     46.36550257	      0.00000000	      0.00000000	     28.91612608	    -12.56279126	      8.78534547	     60.82407176	     46.16257208	      0.00000000	      0.00000000
     12.98857143	     -6.57516879	     -4.94873887	     -3.58354916	      1.03952184	      0.90092170	      0.38880377	     33.16688656	     -1.51558498	     -2.54173770	     53.59192705	     53.59192705	     15.67366814	    -18.71257605	     11.95256713	     27.28595748	     -5.03279128	     -0.74613037	     39.24548417	     39.24548417	     21.47710867	    -18.46112116	     10.79725607	    -13.48666588	      4.28033938	      4.08290782	     -4.73386302	    -16.52616742	      2.95497330	     25.36226980	     46.34273694	      0.00000000	      0.00000000	     29.05462577	    -12.39597052	      8.36420789	     66.16589378	     46.29281052	      0.00000000	      0.00000000
     13.01000000	     -7.01645242	     -5.41367909	     -4.01954166	      1.03738640	      0.90336341	      0.39253692	     33.14223265	     -1.03570718	     -1.88996108	     49.25285068	     49.25285068	     13.20222592	    -18.26484110	      5.23384776	     26.85171205	     -5.97443821	     -1.06385883	     37.98234335	     37.98234335	     20.55046045	    -18.38494939	      9.01094987	    -13.30548605	      4.72139592	      3.50694711	     -6.49953665	    -16.87096470	      1.27410316	     28.55046897	     46.28587073	      0.00000000	      0.00000000	     29.10165292	    -13.17274299	      7.84001791	     69.82931824	     46.49030602	      0.00000000	      0.00000000
     13.03142857	     -7.63281957	     -5.74118109	     -4.40415323	      1.03514679	      0.90571180	      0.39670595	     33.27385892	     -0.64909539	     -1.00266694	     45.08484817	     45.08484817	     11.66768312	    -16.85000010	      1.95905978	     26.56221001	     -6.81167087	     -1.48796198	     36.61881191	     36.61881191	     19.78607530	    -18.12994865	      7.68833108	    -12.94748204	      4.95647773	      3.36576841	     -8.20694728	    -17.01874082	      0.30936563	     31.01588931	     46.21282608	      0.00000000	      0.00000000	     29.08494825	    -13.81483056	      8.04321895	     74.52967771	     46.60761755	      0.00000000	      0.00000000
